<svg width="91" height="90" fill="none" xmlns="http://www.w3.org/2000/svg"><rect opacity=".1" x=".242" width="90" height="90" rx="8" fill="#EF790C"/><path d="m57.566 58.98-.007.02c-.714 2.005-1.603 4.5-4.048 5.282a4.398 4.398 0 0 1-1.34.206c-1.774 0-3.29-.977-4.75-1.963l3.643 12.097a1.3 1.3 0 0 0 .408.62 1.333 1.333 0 0 0 1.425.187c.231-.107.425-.278.56-.491l2.614-4.154c.141-.225.349-.402.595-.508.246-.106.52-.135.783-.084l4.872.937c.25.048.51.024.746-.07a1.32 1.32 0 0 0 .588-.457 1.289 1.289 0 0 0 .057-1.415l-6.146-10.206ZM37.829 64.488a4.396 4.396 0 0 1-1.341-.207c-2.255-.72-3.183-2.895-3.875-4.802l-5.846 9.708a1.286 1.286 0 0 0 .057 1.415 1.341 1.341 0 0 0 1.335.527l4.872-.938c.263-.05.537-.02.783.085.246.106.453.283.595.508l2.614 4.153c.134.214.328.385.559.492a1.34 1.34 0 0 0 1.425-.188 1.3 1.3 0 0 0 .408-.619L43.18 62.12l-.407.274c-1.52 1.03-3.092 2.094-4.944 2.094Z" fill="#EF790C"/><path d="M70 38.494c0-2.413-4.828-4.046-5.546-6.223-.745-2.257 2.16-6.366.772-8.244-1.403-1.897-6.28-.44-8.207-1.82-1.908-1.367-2-6.39-4.292-7.123-2.212-.707-5.276 3.281-7.727 3.281-2.452 0-5.515-3.988-7.727-3.28-2.293.732-2.384 5.755-4.292 7.122-1.927 1.38-6.804-.077-8.207 1.82-1.389 1.878 1.517 5.987.772 8.244C24.828 34.448 20 36.08 20 38.494s4.828 4.045 5.547 6.222c.744 2.257-2.16 6.366-.772 8.244 1.402 1.897 6.28.44 8.207 1.82 1.908 1.367 1.999 6.39 4.291 7.123 2.212.707 5.276-3.28 7.728-3.28s5.515 3.987 7.727 3.28c2.292-.732 2.383-5.755 4.291-7.122 1.928-1.381 6.805.076 8.208-1.82 1.388-1.879-1.517-5.988-.773-8.244.718-2.178 5.546-3.81 5.546-6.223ZM45.006 51.615c-2.636 0-5.214-.77-7.406-2.211a13.169 13.169 0 0 1-4.91-5.889 12.93 12.93 0 0 1-.758-7.58 13.06 13.06 0 0 1 3.648-6.72 13.397 13.397 0 0 1 6.825-3.59 13.528 13.528 0 0 1 7.702.746 13.286 13.286 0 0 1 5.983 4.833 12.944 12.944 0 0 1 1.232 12.311 13.11 13.11 0 0 1-2.89 4.257 13.346 13.346 0 0 1-4.325 2.844c-1.617.66-3.35 1-5.1 1Z" fill="#EF790C"/><path d="M50.86 35.333h-2.502c-.287 0-.567-.09-.799-.256a1.338 1.338 0 0 1-.493-.669l-.774-2.342a1.339 1.339 0 0 0-.493-.669 1.374 1.374 0 0 0-1.598 0c-.232.166-.405.4-.493.669l-.774 2.342a1.338 1.338 0 0 1-.493.67 1.374 1.374 0 0 1-.799.255H39.14c-.288 0-.567.089-.8.255-.232.166-.405.4-.493.669a1.317 1.317 0 0 0 0 .827c.089.269.261.503.494.669l2.024 1.448c.232.166.405.4.494.669.089.268.089.558 0 .826l-.773 2.343a1.317 1.317 0 0 0 0 .826c.089.269.262.503.494.668a1.373 1.373 0 0 0 1.597 0l2.025-1.447a1.373 1.373 0 0 1 1.597 0l2.024 1.448a1.373 1.373 0 0 0 1.597 0c.233-.167.405-.4.494-.67a1.318 1.318 0 0 0 0-.826l-.773-2.342a1.318 1.318 0 0 1 0-.827 1.34 1.34 0 0 1 .494-.669l2.024-1.448c.232-.166.405-.4.494-.669a1.318 1.318 0 0 0 0-.826 1.339 1.339 0 0 0-.494-.669 1.374 1.374 0 0 0-.799-.255Z" fill="#EF790C"/></svg>