<svg width="91" height="90" fill="none" xmlns="http://www.w3.org/2000/svg"><rect opacity=".1" x=".211" width="90" height="90" rx="8" fill="#EF790C"/><path d="M45 67v4c4.684 0 8.404-1.706 11.246-4H45Z" fill="#EF790C"/><path d="M25 47v4c0 5 4 6 4 6s4 12 16 12" stroke="#EF790C" stroke-width="2" stroke-miterlimit="10" stroke-linecap="round"/><path d="M67 49h-6c0-12.48-6-18-6-18-6 14-26 4-26 18h-6v-8c0-14 12-22 22-22 8 0 10 4 10 4 8 0 12 10 12 18v8ZM46 57h-2a3.001 3.001 0 0 0 0 6h2a3.001 3.001 0 0 0 0-6Z" fill="#EF790C"/><path d="M47 61h10a8 8 0 0 0 8-8v-6" stroke="#EF790C" stroke-width="2" stroke-miterlimit="10" stroke-linecap="round"/><path d="M65 55h-4V45h4c2.21 0 4 1.79 4 4v2c0 2.21-1.79 4-4 4Z" fill="#EF790C"/></svg>