<svg width="61" height="57" fill="none" xmlns="http://www.w3.org/2000/svg"><path d="M36.86 20.125H3.516a2.79 2.79 0 0 0-2.79 2.79V44.97a2.79 2.79 0 0 0 2.79 2.79h10.326a1.492 1.492 0 0 1 1.492 1.492v5.205a1.644 1.644 0 0 0 2.74 1.224l8.197-7.345c.413-.37.95-.576 1.505-.576h9.085a2.79 2.79 0 0 0 2.79-2.79V22.916a2.79 2.79 0 0 0-2.79-2.79Zm-16.672 18.47H9.218a1.384 1.384 0 1 1 0-2.766h10.97a1.382 1.382 0 1 1 0 2.766Zm10.97 0H26.88a1.384 1.384 0 1 1 0-2.766h4.278a1.383 1.383 0 0 1 0 2.766Zm0-7.006H9.218a1.382 1.382 0 1 1 0-2.765h21.94a1.383 1.383 0 0 1 0 2.765Z" fill="#EF790C"/><path d="M57.935.108H24.59a2.79 2.79 0 0 0-2.79 2.79V17.36h15.06a5.563 5.563 0 0 1 5.557 5.557v7.335l6.04 5.413a1.644 1.644 0 0 0 2.74-1.224v-5.206a1.493 1.493 0 0 1 1.492-1.491h5.246a2.79 2.79 0 0 0 2.79-2.79V2.897a2.789 2.789 0 0 0-2.79-2.79Zm-5.703 18.34h-7.284a1.382 1.382 0 1 1 0-2.764h7.284a1.382 1.382 0 1 1 0 2.765Zm0-6.793h-21.94a1.384 1.384 0 1 1 0-2.766h21.94a1.383 1.383 0 1 1 0 2.766Z" fill="#EF790C"/></svg>