<svg width="61" height="49" fill="none" xmlns="http://www.w3.org/2000/svg"><path d="M46.477 18.118h-14.25v5.238c0 3.714-3.028 6.735-6.75 6.735s-6.75-3.021-6.75-6.735V11.981l-6.084 3.649a5.971 5.971 0 0 0-2.916 5.126v4.424l-7.5 4.322A2.983 2.983 0 0 0 1.13 33.59l7.5 12.965a3.005 3.005 0 0 0 4.097 1.095l9.694-5.585h12.806c3.31 0 6-2.685 6-5.987h1.5c1.66 0 3-1.337 3-2.993v-5.987h.75c1.247 0 2.25-1 2.25-2.245v-4.49a2.242 2.242 0 0 0-2.25-2.245Zm13.847-3.499-7.5-12.965A3.005 3.005 0 0 0 48.727.56l-9.694 5.584h-9.58a6.055 6.055 0 0 0-3.18.907l-3.14 1.956a2.972 2.972 0 0 0-1.406 2.535v11.814a3.745 3.745 0 0 0 3.75 3.742 3.745 3.745 0 0 0 3.75-3.742v-8.232h17.25c2.897 0 5.25 2.348 5.25 5.239v2.666l7.5-4.322a2.993 2.993 0 0 0 1.097-4.088Z" fill="#EF790C"/></svg>