<svg width="61" height="36" fill="none" xmlns="http://www.w3.org/2000/svg"><path d="M30.725.962c-10.969 0-19.513 6.535-30 17.143 9.027 9.067 16.607 17.143 30 17.143 13.38 0 23.223-10.233 30-16.956-6.938-7.875-16.768-17.33-30-17.33Zm0 29.37c-6.616 0-12-5.49-12-12.227 0-6.75 5.384-12.228 12-12.228s12 5.491 12 12.228c0 6.75-5.384 12.227-12 12.227Z" fill="#EF790C"/><path d="M30.725 13.819a4.3 4.3 0 0 1 1.018-2.772 6.388 6.388 0 0 0-1.018-.08c-3.857 0-7.005 3.2-7.005 7.138 0 3.937 3.148 7.138 7.005 7.138 3.857 0 7.004-3.2 7.004-7.138 0-.308-.026-.617-.053-.925a4.277 4.277 0 0 1-2.652.925 4.284 4.284 0 0 1-4.3-4.286Z" fill="#EF790C"/></svg>