<svg width="425" height="444" fill="none" xmlns="http://www.w3.org/2000/svg"><rect x="7" y="16" width="347" height="352" rx="5" fill="#FF8A00" fill-opacity=".15"/><rect x="76" y="64" width="349" height="380" rx="5" fill="#EF790C"/><g clip-path="url('#clip0_36_455')" fill="#EF790C"><path d="M331.284.245a61.876 61.876 0 0 0-13.15 11.581 61.778 61.778 0 0 0-5.273 7.138c-1.551 2.444-2.99 5.059-3.603 7.947-.565 2.666-.258 5.532 1.555 7.624 1.625 1.874 4.082 2.717 6.428 3.045 2.719.385 5.5.195 8.214-.11a53.682 53.682 0 0 0 8.827-1.769c6.526-1.884 12.675-4.999 18.135-9.17.542-.411-.214-.717-.573-.643a48.22 48.22 0 0 0-19.925 9.184 46.404 46.404 0 0 0-4.158 3.642c-1.222 1.204-2.604 2.782-2.581 4.652.044 3.68 4.815 3.726 7.294 3.601 8.237-.42 16.038-3.522 23.554-6.822 7.681-3.37 15.243-7.036 22.697-10.92 7.455-3.883 14.891-8.021 22.199-12.289.893-.523 1.786-1.046 2.679-1.573.289-.172.52-.533.165-.76-.356-.226-.991-.013-1.324.181-6.913 4.082-13.892 8.045-20.969 11.812-7.068 3.768-14.229 7.342-21.497 10.67-7.037 3.217-14.238 6.586-21.844 8.021-1.915.361-3.852.602-5.798.662-1.377.042-2.869.037-4.1-.703-1.435-.866-1.608-2.611-.84-4.041.844-1.57 2.284-2.778 3.581-3.93 5.238-4.643 11.497-8.036 18.161-9.808a41.29 41.29 0 0 1 2.461-.579l-.573-.643a51.662 51.662 0 0 1-14.976 7.933 51.168 51.168 0 0 1-8.289 2.023c-2.604.403-5.274.68-7.912.556-2.275-.107-4.749-.57-6.593-2.06-1.999-1.62-2.826-4.152-2.555-6.735.294-2.791 1.515-5.392 2.928-7.744a62.478 62.478 0 0 1 4.811-6.897A60.115 60.115 0 0 1 332.296.75c.245-.158.463-.463.143-.667-.32-.204-.88-.023-1.16.158l.005.004Z"/><path d="M391.871 15.932a109.44 109.44 0 0 1 18.067-4.606l-.675-.143c.151.185-2.577 2.578-2.861 2.842-1.035.967-2.075 1.935-3.11 2.907-2.07 1.935-4.136 3.87-6.202 5.814-.266.254-.173.532.16.625.378.101.907-.065 1.195-.334 3.803-3.527 7.588-7.077 11.373-10.623.378-.351.884-.703 1.102-1.194.218-.49-.036-.852-.538-.88-.533-.032-1.155.172-1.679.264a115.498 115.498 0 0 0-9.138 2.023c-2.67.708-5.313 1.523-7.925 2.426-.245.083-.836.305-.738.68.093.357.737.287.969.208v-.009Z"/></g><g clip-path="url('#clip1_36_455')"><path d="M29.212 353.966c-3.98 10.233-7.881 20.534-11.822 30.801-.302.779.472 1.069.842 1.025 2.857-.347 5.38-2.721 7.816-4.568a202.442 202.442 0 0 0 7.394-5.906c4.88-4.078 9.557-8.539 14.244-13.032l-1.743-.904c-3.71 7.141-7.227 14.525-10.833 21.791-3.606 7.267-7.213 14.523-10.818 21.8-2.033 4.105-4.066 8.21-6.074 12.351-.318.651-.166 1.223.424 1.359.59.135 1.456-.344 1.805-1.02 7.315-14.417 14.433-29.046 21.637-43.588 2.033-4.105 4.126-8.168 6.096-12.345.267-.563.254-1.115-.296-1.316-.609-.224-1.273.216-1.73.685-4.252 4.41-8.747 8.391-13.275 12.216a196.2 196.2 0 0 1-6.819 5.52c-1.15.894-2.302 1.767-3.462 2.632-1.16.865-2.286 1.845-3.613 2.009l.841 1.025c3.913-10.272 7.858-20.5 11.733-30.797.285-.757-.45-1.012-.817-.989-.59.036-1.244.514-1.53 1.251Z" fill="#EF790C"/></g><defs><clipPath id="clip0_36_455"><path fill="#fff" transform="translate(309)" d="M0 0h102v47H0z"/></clipPath><clipPath id="clip1_36_455"><path fill="#fff" transform="rotate(-8.318 2446.737 177.912)" d="M0 0h61v66H0z"/></clipPath></defs></svg>