<svg width="106" height="106" fill="none" xmlns="http://www.w3.org/2000/svg"><path d="M0 8a8 8 0 0 1 8-8h90a8 8 0 0 1 8 8v90a8 8 0 0 1-8 8H8a8 8 0 0 1-8-8V8Z" fill="#EF790C" fill-opacity=".15"/><path d="m34.665 58.666 27.476.003c.26.429.578.827.952 1.182l1.797 1.705a9.896 9.896 0 0 1-1.052 2.507 10.576 10.576 0 0 1-1.716 2.234l-1.986-.662c-2.337-.78-4.873.114-6.27 2.165l-1.804 2.65c-1.572 2.31-1.292 5.466.674 7.44l.569.57a41.25 41.25 0 0 1-4.271.212c-7.225 0-12.823-1.642-16.731-5.001a9.377 9.377 0 0 1-3.264-7.11v-2.27a5.626 5.626 0 0 1 5.626-5.625Zm29.398-4.388 1.258-2.968c.59-1.392 2.004-2.15 3.39-1.86l.297.078 1.576.503c1.563.5 2.76 1.838 3.146 3.52.918 3.994-.184 8.858-3.306 14.59-3.118 5.724-6.534 9.166-10.251 10.326-1.443.45-2.993.123-4.16-.856l-.307-.283-1.197-1.202c-1.037-1.041-1.251-2.689-.556-3.978l.177-.29 1.804-2.65c.71-1.043 1.924-1.537 3.094-1.288l.318.087 3.33 1.11c1.33-1.005 2.437-2.271 3.325-3.797.76-1.308 1.257-2.634 1.492-3.977l.095-.674-2.773-2.632c-.913-.867-1.245-2.217-.872-3.432l.12-.327Zm-15.03-25.606c6.905 0 12.503 5.597 12.503 12.502s-5.598 12.502-12.502 12.502c-6.905 0-12.502-5.597-12.502-12.502s5.597-12.502 12.502-12.502Z" fill="#EF790C"/></svg>