<svg width="145" height="80" fill="none" xmlns="http://www.w3.org/2000/svg"><g clip-path="url('#clip0_98_2927')" fill="#EF790C"><path d="M3.496 47.352c15.754-6.707 33.123-10.734 51.01-12.033 17.94-1.299 36.373.13 54.325 4.216 10.048 2.29 20.04 5.371 29.515 9.45.536.23 1.539.853 1.472 1.464-.075.639-1.103.31-1.513.143-8.336-3.348-16.826-6.215-25.56-8.372a180.365 180.365 0 0 0-26.485-4.456c-17.855-1.678-35.775-.683-52.727 2.925-9.545 2.022-18.761 4.921-27.48 8.628-.973.41-3.6-1.519-2.557-1.965Z"/><path d="M125.598 55.791a657.35 657.35 0 0 0 17.723-2.826c.402-.072.71-.292.851-.461 1.204-1.53.724-2.697-.171-3.671-1.025-1.107-2.509-2.046-3.8-3.037-2.734-2.09-5.262-4.29-8.309-6.246-.281-.184-1.082-.372-1.849.01-.767.383-.396.925-.19 1.117 2.12 1.952 4.732 3.712 7.132 5.55 1.169.893 2.337 1.78 3.493 2.676.958.736 1.995 1.487.963 2.813l.851-.461a645.856 645.856 0 0 1-17.718 2.849c-1.081.16-.987.946-.871 1.131.217.36.804.729 1.898.57l-.003-.014Z"/></g><defs><clipPath id="clip0_98_2927"><path fill="#fff" d="M0 0h145v80H0z"/></clipPath></defs></svg>