<svg width="107" height="106" fill="none" xmlns="http://www.w3.org/2000/svg"><path d="M.483 8a8 8 0 0 1 8-8h90a8 8 0 0 1 8 8v90a8 8 0 0 1-8 8h-90a8 8 0 0 1-8-8V8Z" fill="#EF790C" fill-opacity=".15"/><path d="M60.402 50.176a10.27 10.27 0 0 1 7.31 3.024l1.914 1.914c3.907-1.733 6.958-5.206 7.97-9.439.56-2.336.522-4.597.022-6.68-.256-1.062-1.605-1.416-2.377-.644l-6.729 6.728H61.13v-7.295l6.729-6.729c.772-.773.417-2.122-.645-2.377-2.082-.5-4.344-.538-6.68.021-5.4 1.292-9.608 5.88-10.468 11.367-.141.813-.17 1.604-.16 2.386l8.083 8.091c.793-.27 1.604-.367 2.414-.367Zm5.098 5.322c-2.262-2.261-5.622-2.692-8.339-1.357L46.662 43.72v-6.056L34.25 28.291 28 34.453l9.375 12.413h6.059l10.42 10.41c-1.335 2.717-.904 6.078 1.358 8.34L66.638 77.05a3.65 3.65 0 0 0 5.147 0l5.151-5.152a3.65 3.65 0 0 0 0-5.147L65.5 55.498Zm-15.244 2.774L44.475 52.5 29.934 67.041a6.589 6.589 0 1 0 9.318 9.319l11.63-11.631c-.86-2.033-1.144-4.27-.626-6.457ZM34.25 74.385a2.344 2.344 0 1 1 .001-4.689 2.344 2.344 0 0 1-.001 4.689Z" fill="#EF790C"/></svg>