<svg width="107" height="106" fill="none" xmlns="http://www.w3.org/2000/svg"><path d="M.517 8a8 8 0 0 1 8-8h90a8 8 0 0 1 8 8v90a8 8 0 0 1-8 8h-90a8 8 0 0 1-8-8V8Z" fill="#EF790C" fill-opacity=".15"/><path d="m42.908 29.389 2.69-.86c2.523-.805 5.218.497 6.298 3.042l2.15 5.07c.935 2.208.415 4.805-1.285 6.42l-4.738 4.495c.293 2.69 1.198 5.338 2.713 7.943a21.692 21.692 0 0 0 5.675 6.488l5.69-1.9c2.155-.718 4.505.11 5.825 2.052l3.082 4.525c1.538 2.26 1.26 5.375-.647 7.29l-2.043 2.053c-2.035 2.042-4.942 2.785-7.63 1.945-6.35-1.98-12.182-7.858-17.507-17.633-5.333-9.79-7.215-18.1-5.645-24.92.66-2.87 2.702-5.158 5.372-6.01Z" fill="#EF790C"/></svg>