<svg width="150" height="62" fill="none" xmlns="http://www.w3.org/2000/svg"><g clip-path="url('#clip0_98_2924')" fill="#EF790C"><path d="M1.12 23.6c15.477 9.908 32.733 16.963 50.667 20.957 17.985 4 36.623 4.936 54.928 2.752 10.246-1.226 20.48-3.37 30.252-6.732.552-.19 1.597-.764 1.565-1.476-.039-.744-1.093-.51-1.515-.375-8.583 2.68-17.293 4.787-26.209 6.044-8.915 1.258-17.926 1.708-26.916 1.418A161.245 161.245 0 0 1 30.98 35.455 151.75 151.75 0 0 1 3.805 21.699c-.955-.608-3.71 1.241-2.685 1.9Z"/><path d="M124.701 37.735c6.881-.147 13.766-.34 20.654-.434l-.123-1.683c-6.943 5.845-14.051 11.477-21.184 17.09-.397.312-1.062 1.116-.459 1.541.604.425 1.681-.286 2.127-.614 7.285-5.413 14.337-11.173 21.242-17.052.643-.552 1.185-1.728-.122-1.683-6.889.213-13.791.32-20.68.47-.77.017-1.742.65-2.112 1.319-.37.668-.066 1.067.66 1.054l-.003-.008Z"/></g><defs><clipPath id="clip0_98_2924"><path fill="#fff" transform="translate(0 .792)" d="M0 0h150v61H0z"/></clipPath></defs></svg>