<svg width="165" height="166" fill="none" xmlns="http://www.w3.org/2000/svg"><g opacity=".5" fill="#fff"><path d="m17.73 131.034-.137.137c-1.856-4.054-3.024-8.658-3.505-13.744a42.205 42.205 0 0 0 3.642 13.607ZM61.849 71.728c9.032 0 16.355-7.322 16.355-16.355 0-9.033-7.323-16.356-16.355-16.356-9.033 0-16.356 7.323-16.356 16.356 0 9.033 7.323 16.355 16.355 16.355Z"/><path d="M111.258 14.14H53.671c-25.015 0-39.927 14.913-39.927 39.927v57.588c0 7.49 1.306 14.019 3.848 19.516 5.91 13.057 18.555 20.41 36.079 20.41h57.587c25.015 0 39.927-14.912 39.927-39.926V54.068c0-25.015-14.912-39.928-39.927-39.928Zm28.726 72.157c-5.361-4.604-14.019-4.604-19.38 0L92.017 110.83c-5.36 4.604-14.02 4.604-19.38 0l-2.336-1.924c-4.88-4.261-12.645-4.673-18.142-.962l-25.702 17.249c-1.512-3.849-2.405-8.315-2.405-13.538V54.067c0-19.38 10.24-29.619 29.619-29.619h57.587c19.38 0 29.619 10.24 29.619 29.62v32.985l-.893-.756Z"/></g></svg>