<svg width="165" height="165" fill="none" xmlns="http://www.w3.org/2000/svg"><g opacity=".5" fill="#fff"><path d="m17.73 130.638-.138.137c-1.855-4.054-3.023-8.659-3.504-13.744a42.215 42.215 0 0 0 3.642 13.607ZM61.848 71.332c9.033 0 16.356-7.323 16.356-16.355 0-9.033-7.323-16.356-16.356-16.356-9.032 0-16.355 7.323-16.355 16.355 0 9.033 7.322 16.356 16.355 16.356Z"/><path d="M111.259 13.744H53.671c-25.014 0-39.927 14.913-39.927 39.927v57.588c0 7.49 1.306 14.019 3.849 19.516 5.91 13.057 18.554 20.41 36.078 20.41h57.588c25.014 0 39.926-14.912 39.926-39.926V53.671c0-25.014-14.912-39.927-39.926-39.927Zm28.725 72.157c-5.36-4.605-14.019-4.605-19.379 0l-28.588 24.533c-5.36 4.604-14.02 4.604-19.38 0l-2.336-1.924c-4.879-4.261-12.645-4.673-18.142-.962l-25.702 17.248c-1.511-3.848-2.405-8.315-2.405-13.537V53.671c0-19.38 10.24-29.619 29.619-29.619h57.588c19.379 0 29.618 10.24 29.618 29.619v32.986l-.893-.756Z"/></g></svg>