<svg width="138" height="41" fill="none" xmlns="http://www.w3.org/2000/svg"><path d="M72.061 6.91c3.546 0 6.051 2.6 6.051 5.92 0 1.4-.494 2.66-1.282 3.67l.788.73c.333.28.363.62.07.96l-.303.33c-.293.31-.626.34-.91.07l-.838-.83c-.99.73-2.212 1.14-3.576 1.14-3.546 0-6.051-2.68-6.051-6.06 0-3.33 2.525-5.93 6.051-5.93Zm0 10.05c.727 0 1.485-.21 2.04-.62l-.807-.77c-.314-.28-.344-.62-.05-.95l.292-.31c.293-.33.626-.36.91-.08l.828.83c.414-.64.646-1.42.646-2.24 0-2.29-1.667-4-3.859-4-2.212 0-3.86 1.71-3.86 4 0 2.35 1.648 4.14 3.86 4.14ZM79.689 11.06c0-.44.242-.69.697-.69h.707c.464 0 .697.24.697.69v4.24c0 1.01.262 1.7 1.303 1.7 1.515 0 2.354-1.32 2.354-2.81v-3.13c0-.44.232-.69.697-.69h.707c.445 0 .697.24.697.69v6.95c0 .46-.242.69-.697.69h-.646c-.445 0-.677-.23-.677-.69v-.49c0-.2.03-.38.03-.38h-.03c-.394.85-1.485 1.75-2.92 1.75-1.798 0-2.92-.9-2.92-3.17v-4.66ZM89.599 8.28v-.49c0-.44.232-.69.677-.69h.727c.445 0 .697.24.697.69v.49c0 .44-.242.67-.697.67h-.727c-.445 0-.677-.23-.677-.67Zm0 2.78c0-.44.232-.69.677-.69h.727c.445 0 .677.24.677.69v6.95c0 .46-.232.69-.677.69h-.727c-.445 0-.677-.23-.677-.69v-6.95ZM97.802 10.17c1.354 0 2.263.49 2.758.83.344.23.364.57.132.93l-.213.33c-.242.38-.525.38-.919.18a2.95 2.95 0 0 0-1.636-.51c-1.546 0-2.556 1.16-2.556 2.58 0 1.4 1.01 2.61 2.626 2.61.829 0 1.485-.36 1.88-.64.413-.23.727-.18.939.21l.161.31c.202.36.152.69-.181.91-.516.38-1.536.96-2.98.96-2.789 0-4.567-1.94-4.567-4.36-.02-2.34 1.768-4.34 4.556-4.34ZM102.5 7.79c0-.44.242-.69.697-.69h.707c.465 0 .697.24.697.69v5.52h1.041l1.747-2.48c.203-.33.445-.46.829-.46h.788c.566 0 .737.38.424.82l-2.091 2.91v.03l2.475 3.75c.283.47.101.82-.465.82h-.889c-.384 0-.626-.15-.808-.47l-1.96-3.17h-1.091v2.95c0 .46-.232.69-.697.69h-.707c-.445 0-.697-.23-.697-.69V7.79ZM66.242 24.8c0-.44.232-.69.677-.69h3.495c2.112 0 3.627 1.08 3.627 2.99 0 1.08-.525 2.01-1.414 2.48v.03c1.273.38 1.879 1.55 1.879 2.73 0 2.32-1.859 3.36-4.041 3.36h-3.546c-.445 0-.677-.23-.677-.69V24.8Zm4.182 4.05c.92 0 1.435-.65 1.435-1.49 0-.83-.495-1.44-1.485-1.44h-2.03v2.92h2.08v.01Zm.202 5.04c1.092 0 1.698-.7 1.698-1.68 0-.96-.627-1.66-1.698-1.66h-2.273v3.35h2.273v-.01ZM76.153 28.07c0-.44.232-.69.676-.69h.647c.445 0 .697.24.697.69v.78c0 .31-.05.57-.05.57h.03c.333-1 1.253-2.11 2.445-2.11.464 0 .626.23.626.69v.64c0 .44-.263.69-.707.69-1.536 0-2.273 1.5-2.273 3.02v2.67c0 .46-.233.69-.677.69h-.727c-.445 0-.677-.23-.677-.69v-6.95h-.01ZM82.335 25.29v-.49c0-.44.233-.69.677-.69h.728c.444 0 .697.24.697.69v.49c0 .44-.243.67-.697.67h-.728c-.444 0-.677-.23-.677-.67Zm0 2.78c0-.44.233-.69.677-.69h.728c.444 0 .676.24.676.69v6.95c0 .46-.232.69-.676.69h-.728c-.444 0-.677-.23-.677-.69v-6.95ZM90.528 27.19c1.354 0 2.263.49 2.758.83.344.23.364.57.132.93l-.212.33c-.253.38-.526.38-.92.18a2.95 2.95 0 0 0-1.636-.51c-1.546 0-2.556 1.16-2.556 2.58 0 1.4 1.01 2.61 2.626 2.61.829 0 1.485-.36 1.88-.64.414-.23.727-.18.939.21l.162.31c.202.36.151.69-.182.91-.516.38-1.536.96-2.98.96-2.789 0-4.567-1.94-4.567-4.36-.01-2.35 1.768-4.34 4.556-4.34ZM99.217 27.19c2.555 0 4.637 1.81 4.637 4.36 0 2.56-2.082 4.36-4.637 4.36-2.556 0-4.617-1.8-4.617-4.36 0-2.55 2.06-4.36 4.617-4.36Zm0 6.95c1.363 0 2.505-1.04 2.505-2.6 0-1.53-1.142-2.6-2.505-2.6-1.364 0-2.486 1.06-2.486 2.6 0 1.55 1.122 2.6 2.486 2.6ZM105.369 24.8c0-.44.232-.69.677-.69h.727c.445 0 .677.24.677.69v8.14c0 .82.344.96.657 1 .293.03.515.21.515.59v.56c0 .42-.202.7-.697.7-1.121 0-2.556-.29-2.556-2.68V24.8ZM114.259 30.56h.344v-.2c0-1.09-.707-1.47-1.566-1.47-.707 0-1.354.26-1.748.47-.414.18-.727.11-.919-.28l-.162-.31c-.202-.38-.131-.7.263-.91a6.001 6.001 0 0 1 2.758-.69c2.172 0 3.475 1.21 3.475 3.31v4.54c0 .46-.232.69-.697.69h-.556c-.444 0-.677-.23-.677-.69v-.33c0-.23.031-.36.031-.36h-.031s-.788 1.57-2.636 1.57c-1.536 0-2.789-.98-2.789-2.5-.01-2.43 3.021-2.84 4.91-2.84Zm-1.576 3.76c1.172 0 1.93-1.18 1.93-2.19v-.31h-.344c-1.05 0-2.849.16-2.849 1.4 0 .56.425 1.1 1.263 1.1ZM120.21 37.06c.394.15.919.31 1.697.31 1.283 0 2.374-.54 2.374-2.02v-.62c0-.2.03-.42.03-.42h-.03c-.465.78-1.192 1.24-2.314 1.24-2.455 0-3.808-1.93-3.808-4.23 0-2.27 1.283-4.13 3.788-4.13 1.96 0 2.485 1.27 2.485 1.27h.031s-.02-.08-.02-.21v-.31c0-.31.232-.55.676-.55h.556c.445 0 .677.24.677.69v7.13c0 2.86-2.273 3.93-4.354 3.93-.94 0-1.879-.2-2.455-.44-.425-.18-.546-.46-.364-.88l.131-.38c.202-.41.455-.53.9-.38Zm4.121-5.7c0-1.91-.959-2.42-2.04-2.42-1.304 0-2.011.91-2.011 2.29 0 1.5.758 2.56 2.112 2.56.98.01 1.939-.57 1.939-2.43ZM132.211 27.19c2.395 0 3.728 1.68 3.728 3.97 0 .36-.313.7-.727.7h-5.132c.131 1.5 1.252 2.29 2.525 2.29.778 0 1.415-.29 1.819-.54.414-.2.707-.15.919.23l.202.33c.202.38.131.7-.232.91a5.39 5.39 0 0 1-2.849.83c-2.788 0-4.516-1.99-4.516-4.36-.01-2.57 1.738-4.36 4.263-4.36Zm1.647 3.41c-.03-1.16-.737-1.84-1.697-1.84-1.071 0-1.829.73-2.031 1.84h3.728ZM27.913 1.78 1.98 25.16h4.647L27.913 5.97 49.2 25.16h4.647L27.913 1.78Z" fill="#F27321"/><path d="M27.63 10.48h-2.768v2.74h2.768v-2.74ZM30.964 10.48h-2.768v2.74h2.768v-2.74ZM27.63 13.85h-2.768v2.74h2.768v-2.74ZM30.964 13.85h-2.768v2.74h2.768v-2.74ZM40.37 28.29v-.06c1.656-.85 2.667-2.52 2.667-4.61 0-3.46-2.607-5.46-6.254-5.46h-6.556c-.677 0-1.01.33-1.01 1v9.58c0 1.5-.395 2.95-1.051 4.15-.162.3-.344.59-.546.86l-1.838-1.85c-.435-.43-.92-.37-1.344.12l-.394.39c-.434.49-.434.97.06 1.39l1.809 1.79c-1.253 1.03-3 1.58-4.718 1.58-4.536 0-7.94-3.7-7.94-8.43 0-4.7 3.404-8.19 7.94-8.19 3.061 0 5.627 1.57 6.98 4.02v-4.52c-1.868-1.42-4.262-2.26-6.98-2.26-6.375 0-11.062 4.76-11.062 10.95 0 6.25 4.627 11.19 11.062 11.19 2.637 0 5-.82 6.87-2.31l1.182 1.17.656.65c.04.04.081.08.122.11.343.28.697.26 1.04.01.07-.05.142-.11.212-.18l.394-.42c.425-.49.394-.97-.09-1.4l-1.779-1.75a11.11 11.11 0 0 0 2.425-5.42c.04-.24.06-.49.09-.73.021-.3.041-.6.041-.91 0-.54-.03-1.06-.1-1.58-.01-.05-.01-.09-.02-.14v-6.26h4.505c2.05 0 3.253 1.28 3.253 3.16 0 1.88-1.233 3.25-3.193 3.25h-3.485a13.427 13.427 0 0 1 .06 2.49h3.739c2.273 0 3.738 1.49 3.738 3.67 0 2.18-1.415 3.64-3.738 3.64h-4.648c.425.44.546.9.566 1.22.02.34-.05.85-.495 1.39h4.415c3.829 0 6.99-2.06 6.99-6.1-.02-2.41-1.302-4.53-3.575-5.2ZM59.908 7.51h-.425v29.44h.425V7.51Z" fill="#F27321"/></svg>