<svg width="53" height="39" fill="none" xmlns="http://www.w3.org/2000/svg"><path d="M26.913.78.98 24.16h4.647L26.913 4.97 48.2 24.16h4.647L26.913.78Z" fill="#F27321"/><path d="M26.63 9.48h-2.768v2.74h2.768V9.48ZM29.964 9.48h-2.768v2.74h2.768V9.48ZM26.63 12.85h-2.768v2.74h2.768v-2.74ZM29.964 12.85h-2.768v2.74h2.768v-2.74ZM39.37 27.29v-.06c1.656-.85 2.667-2.52 2.667-4.61 0-3.46-2.607-5.46-6.254-5.46h-6.556c-.677 0-1.01.33-1.01 1v9.58c0 1.5-.395 2.95-1.051 4.15-.162.3-.344.59-.546.86l-1.838-1.85c-.435-.43-.92-.37-1.344.12l-.394.39c-.434.49-.434.97.06 1.39l1.809 1.79c-1.253 1.03-3 1.58-4.718 1.58-4.536 0-7.94-3.7-7.94-8.43 0-4.7 3.404-8.19 7.94-8.19 3.061 0 5.627 1.57 6.98 4.02v-4.52c-1.868-1.42-4.262-2.26-6.98-2.26-6.375 0-11.062 4.76-11.062 10.95 0 6.25 4.627 11.19 11.062 11.19 2.637 0 5-.82 6.87-2.31l1.182 1.17.656.65c.04.04.081.08.122.11.343.28.697.26 1.04.01.07-.05.142-.11.212-.18l.394-.42c.425-.49.394-.97-.09-1.4l-1.779-1.75a11.11 11.11 0 0 0 2.425-5.42c.04-.24.06-.49.09-.73.021-.3.041-.6.041-.91 0-.54-.03-1.06-.1-1.58-.01-.05-.01-.09-.02-.14v-6.26h4.505c2.05 0 3.253 1.28 3.253 3.16 0 1.88-1.233 3.25-3.193 3.25h-3.485a13.427 13.427 0 0 1 .06 2.49h3.739c2.273 0 3.738 1.49 3.738 3.67 0 2.18-1.415 3.64-3.738 3.64h-4.648c.425.44.546.9.566 1.22.02.34-.05.85-.495 1.39h4.415c3.829 0 6.99-2.06 6.99-6.1-.02-2.41-1.302-4.53-3.575-5.2Z" fill="#F27321"/></svg>