<svg width="26" height="26" fill="none" xmlns="http://www.w3.org/2000/svg"><path fill-rule="evenodd" clip-rule="evenodd" d="M22.273.82a3.056 3.056 0 0 1 3.054 3.055v18.89a3.056 3.056 0 0 1-3.055 3.055H3.383a3.056 3.056 0 0 1-3.055-3.054V3.875A3.056 3.056 0 0 1 3.38.82h18.892Zm-9.446 3.955c-2.32 0-2.612.01-3.523.052-.91.041-1.53.186-2.074.397a4.189 4.189 0 0 0-1.514.986 4.189 4.189 0 0 0-.985 1.513c-.212.544-.356 1.165-.398 2.074-.041.912-.051 1.203-.051 3.523 0 2.321.01 2.612.051 3.523.042.91.186 1.531.398 2.075a4.19 4.19 0 0 0 .985 1.513c.475.475.952.767 1.514.986.543.21 1.164.355 2.074.397.911.041 1.202.051 3.523.051 2.32 0 2.612-.01 3.523-.051.91-.042 1.53-.186 2.074-.397a4.188 4.188 0 0 0 1.514-.986c.475-.475.767-.952.985-1.513.212-.544.356-1.165.397-2.075.042-.911.052-1.202.052-3.523 0-2.32-.01-2.611-.052-3.523-.041-.91-.186-1.53-.397-2.074a4.187 4.187 0 0 0-.985-1.513 4.189 4.189 0 0 0-1.514-.986c-.543-.211-1.165-.356-2.074-.397-.911-.042-1.202-.052-3.523-.052Zm0 1.54c2.281 0 2.552.009 3.453.05.833.038 1.285.177 1.586.294.4.155.684.34.983.64.299.298.484.583.64.982.116.3.255.753.293 1.586.041.901.05 1.172.05 3.453 0 2.282-.009 2.552-.05 3.453-.038.833-.177 1.286-.294 1.587-.155.399-.34.683-.639.982a2.648 2.648 0 0 1-.983.64c-.3.117-.753.256-1.586.294-.901.04-1.171.05-3.453.05s-2.552-.01-3.453-.05c-.833-.038-1.286-.177-1.587-.294a2.648 2.648 0 0 1-.982-.64 2.647 2.647 0 0 1-.64-.982c-.116-.301-.256-.754-.294-1.587-.04-.9-.05-1.171-.05-3.453 0-2.281.01-2.552.05-3.453.038-.833.178-1.285.295-1.586.155-.4.34-.684.639-.983.299-.299.583-.484.982-.639.301-.117.754-.256 1.587-.294.901-.041 1.171-.05 3.453-.05Zm0 2.617a4.388 4.388 0 1 0 0 8.776 4.388 4.388 0 0 0 0-8.776Zm0 7.237a2.848 2.848 0 1 1 0-5.697 2.848 2.848 0 0 1 0 5.697Zm5.587-7.41a1.025 1.025 0 1 1-2.051 0 1.025 1.025 0 0 1 2.05 0Z" fill="#606060"/></svg>