<svg width="91" height="90" fill="none" xmlns="http://www.w3.org/2000/svg"><rect opacity=".1" x=".898" width="90" height="90" rx="8" fill="#EF790C"/><path d="M18 46.272v24.91h13.438v-3.32l.047.016c3.505 1.165 8.505 2.19 13.458 3.961l.37.13.381-.088c1.558-.362 5.736-1.662 10.738-3.268a795.485 795.485 0 0 0 14.96-4.963c2.034-.703 3.119-2.979 2.371-4.998v-.011c-.785-2.066-3.053-2.978-4.993-2.382l-13.084 3.998c-.011-1.362-.692-2.704-1.798-3.57l-.068-.053-.073-.042c-5.588-3.329-6.071-3.742-13.928-7.917l-.36-.193-.406.041c-2.694.289-7.255 1.04-7.615 1.1v-3.351H18Zm20.928 4.962c7.186 3.827 8.004 4.406 13.318 7.574.838.67 1.06 1.489.547 2.225-.277.4-.55.558-.953.626-.4.067-.96-.004-1.59-.282-2.404-1.11-3.706-1.824-6.354-3.31l-1.163-.651-1.303 2.325 1.163.657c2.656 1.49 4.07 2.262 6.541 3.403l.006.006h.01c1.01.45 2.083.656 3.133.48a4.075 4.075 0 0 0 1.652-.7l15.617-4.78c.62-.19 1.448.12 1.704.772.243.667-.053 1.313-.735 1.548a791.98 791.98 0 0 1-14.902 4.947c-4.844 1.556-8.924 2.796-10.233 3.117-4.998-1.739-9.954-2.813-13.062-3.847l-.886-.297V52.334l.219-.037s4.573-.746 7.271-1.063ZM56.995 19c.529 0 1.088.235 1.735.87.648.636 1.32 1.66 1.893 2.987.625 1.452 1.12 3.276 1.454 5.307H51.913c.333-2.031.828-3.855 1.454-5.307.572-1.328 1.244-2.35 1.892-2.986.648-.636 1.206-.871 1.736-.871Zm-5.103.928c-.35.578-.682 1.19-.975 1.871-.779 1.807-1.342 3.985-1.7 6.365h-5.764a14.57 14.57 0 0 1 8.439-8.236Zm10.206 0a14.57 14.57 0 0 1 8.439 8.236h-5.765c-.358-2.38-.92-4.558-1.7-6.365a15.266 15.266 0 0 0-.974-1.871ZM42.666 30.832h6.244a37.966 37.966 0 0 0-.115 2.758c0 .944.05 1.855.115 2.757h-6.245a14.711 14.711 0 0 1-.265-2.757c0-.944.095-1.864.266-2.758Zm8.918 0h10.821c.072.897.12 1.812.12 2.758s-.048 1.86-.12 2.757h-10.82a34.619 34.619 0 0 1-.12-2.757c0-.946.048-1.86.12-2.758Zm13.495 0H71.32c.17.894.265 1.814.265 2.758s-.095 1.864-.265 2.757H65.079a37.97 37.97 0 0 0 .115-2.757c0-.944-.05-1.856-.115-2.758Zm-21.626 8.184h5.765c.357 2.38.92 4.558 1.699 6.364.293.68.625 1.293.975 1.872a14.573 14.573 0 0 1-8.44-8.236Zm8.46 0h10.164c-.334 2.03-.829 3.854-1.454 5.306-.573 1.328-1.245 2.356-1.893 2.992-.647.636-1.206.87-1.735.87-.53 0-1.088-.234-1.736-.87-.648-.636-1.32-1.664-1.892-2.992-.626-1.452-1.12-3.275-1.454-5.306Zm12.859 0h5.765a14.572 14.572 0 0 1-8.44 8.236c.35-.579.682-1.191.975-1.872.78-1.806 1.342-3.985 1.7-6.364Z" fill="#EF790C"/></svg>