<svg width="68" height="67" fill="none" xmlns="http://www.w3.org/2000/svg"><path d="M4.38 48.239c1.57 5.134 4.304 8.347 7.235 9.63 3.434 1.5 7.087.274 10.446-2.176 3.087-2.255 6.225-5.506 8.678-10.06 2.04-3.78 4.053-9.573 3.562-15.248-.226-2.613-1.12-4.66-2.51-4.744-1.607-.104-3.192 2.066-3.997 4.86-1.656 5.761-.79 12.785 1.404 16.982 2.29 4.385 5.638 6.053 8.837 5.74 3.517-.345 6.965-2.834 10.016-6.6 3.052-3.767 5.67-8.628 8.124-13.788 2.454-5.161 4.768-10.426 5.827-17.007.251-1.558.409-3.148.47-4.757.044-1.134-1.348-.567-1.383.345-.246 6.295-2.026 11.82-4.055 16.636-2.063 4.893-4.367 9.546-6.864 13.56-2.483 4-5.273 7.324-8.327 8.979-2.952 1.603-6.143 1.61-8.861-.873-2.558-2.333-4.557-6.881-4.668-12.798-.053-2.776.353-5.956 1.37-8.073.392-.815.952-1.707 1.532-1.662.58.046 1.02.802 1.31 1.688.627 1.935.56 4.626.235 6.842a29.13 29.13 0 0 1-2.022 7.24c-1.889 4.437-4.503 7.532-7.104 9.904-3.02 2.75-6.296 4.574-9.552 4.033-2.698-.45-5.356-2.665-7.206-6.503a22.63 22.63 0 0 1-1.235-3.2c-.23-.742-1.555.144-1.276 1.056h.013v-.006Z" fill="#EF790C"/></svg>