<svg width="91" height="90" fill="none" xmlns="http://www.w3.org/2000/svg"><rect opacity=".1" x=".555" width="90" height="90" rx="8" fill="#EF790C"/><path d="M61.301 24.674c.375 0 .746-.145 1.022-.44l1.44-1.524a1.402 1.402 0 0 0-.057-1.988 1.403 1.403 0 0 0-1.987.056l-1.44 1.524a1.402 1.402 0 0 0 .057 1.987c.272.258.619.385.965.385ZM60.448 36.552a40.632 40.632 0 0 1 1.82 6.66 1.405 1.405 0 0 0 1.635 1.135 1.405 1.405 0 0 0 1.134-1.631 43.126 43.126 0 0 0-1.486-5.794l6.37-2.32a1.406 1.406 0 0 0 .84-1.805 1.406 1.406 0 0 0-1.805-.839l-7.664 2.79a1.412 1.412 0 0 0-.844 1.804ZM54.345 33.482a6.993 6.993 0 0 0-5.376-.235 1.8 1.8 0 0 0-.216.099c-.075.014-.15.033-.225.06-.703.258-1.917 1.037-2.147 3.385-.136 1.378.113 3.023.694 4.627 1.2 3.29 3.314 5.371 5.306 5.371.324 0 .647-.056.956-.168l.441-.16a6.959 6.959 0 0 0 3.966-3.637 6.994 6.994 0 0 0 .234-5.377 6.965 6.965 0 0 0-3.633-3.965Z" fill="#EF790C"/><path d="m70.381 49.733-9.131-3.16a1.41 1.41 0 0 0-1.79.868 1.41 1.41 0 0 0 .867 1.79l2.423.84c-.24 4.233-1.617 7.18-3.764 7.964-1.978.717-4.664-.39-7.378-3.042-3.014-2.944-5.696-7.379-7.552-12.479-1.856-5.1-2.653-10.218-2.236-14.409.37-3.773 1.72-6.352 3.694-7.073 3.469-1.261 8.766 3.056 12.595 10.26a1.407 1.407 0 0 0 2.484-1.322c-4.64-8.732-11.085-13.387-16.04-11.587-2.212.806-3.848 2.77-4.776 5.653L21.827 43.972c-1.781 1.974-2.297 4.645-1.387 7.14.909 2.498 3.023 4.209 5.653 4.579l1.467.206v12.914a3.755 3.755 0 0 0 3.75 3.75h9.375a3.755 3.755 0 0 0 3.75-3.75v-6.848c0-.778-.628-1.406-1.406-1.406-.779 0-1.407.628-1.407 1.406v6.848a.94.94 0 0 1-.937.938H31.31a.94.94 0 0 1-.938-.938v-12.52l22.28 3.122c1.734 1.092 3.445 1.655 5.053 1.655.774 0 1.524-.132 2.245-.39 3.122-1.134 5.096-4.617 5.55-9.656l3.961 1.374c.155.051.31.08.46.08.581 0 1.13-.366 1.326-.947a1.405 1.405 0 0 0-.867-1.796ZM30.373 53.45l-2.812-.393v-4.402c0-.778.628-1.406 1.406-1.406.778 0 1.406.628 1.406 1.406v4.795Z" fill="#EF790C"/></svg>