<svg width="24" height="50" fill="none" xmlns="http://www.w3.org/2000/svg"><path d="M9.54 1.353C6.552 9.042 3.62 16.783.659 24.498c-.227.585.354.803.633.77 2.146-.26 4.042-2.044 5.873-3.432a152.143 152.143 0 0 0 5.556-4.438c3.667-3.065 7.181-6.417 10.703-9.793l-1.31-.68c-2.788 5.366-5.43 10.915-8.14 16.375-2.71 5.46-5.42 10.913-8.129 16.38-1.528 3.086-3.055 6.17-4.564 9.282-.239.49-.125.92.319 1.021.443.102 1.093-.258 1.356-.766C8.45 38.384 13.8 27.39 19.213 16.463c1.528-3.084 3.1-6.138 4.58-9.276.201-.423.192-.838-.222-.99-.457-.167-.956.163-1.299.516-3.195 3.314-6.573 6.305-9.976 9.18a162.712 162.712 0 0 1-7.726 6.125c-.871.65-1.717 1.387-2.714 1.51l.632.77c2.94-7.72 5.905-15.404 8.817-23.142.213-.569-.339-.76-.614-.743-.444.027-.935.386-1.15.94Z" fill="#EF790C"/></svg>