<svg width="32" height="67" fill="none" xmlns="http://www.w3.org/2000/svg"><path d="M12.697 1.454C8.72 11.686 4.817 21.987.877 32.254c-.303.78.47 1.07.841 1.025 2.857-.347 5.38-2.72 7.816-4.567a202.434 202.434 0 0 0 7.394-5.907c4.88-4.078 9.557-8.539 14.244-13.032l-1.743-.904c-3.71 7.141-7.227 14.525-10.833 21.792-3.606 7.266-7.213 14.523-10.818 21.799A1639.01 1639.01 0 0 0 1.704 64.81c-.318.651-.167 1.223.424 1.359.59.135 1.456-.344 1.805-1.02 7.315-14.416 14.433-29.046 21.637-43.588 2.033-4.105 4.126-8.168 6.095-12.345.267-.562.255-1.115-.296-1.316-.608-.224-1.273.216-1.729.686-4.252 4.409-8.748 8.39-13.276 12.216a196.42 196.42 0 0 1-6.818 5.52c-1.15.893-2.303 1.767-3.463 2.631-1.16.865-2.286 1.845-3.613 2.01l.842 1.024c3.913-10.272 7.858-20.5 11.733-30.797.284-.757-.45-1.012-.817-.989-.59.036-1.244.515-1.53 1.252Z" fill="#EF790C"/></svg>