<svg width="34" height="26" fill="none" xmlns="http://www.w3.org/2000/svg"><path d="M33.11 6.34c0-2.929-2.154-5.285-4.817-5.285A235.82 235.82 0 0 0 17.253.82H16.08c-3.75 0-7.434.065-11.04.235-2.657 0-4.812 2.37-4.812 5.299A95.384 95.384 0 0 0 0 13.307a99.496 99.496 0 0 0 .222 6.959c0 2.93 2.155 5.306 4.81 5.306 3.79.175 7.676.253 11.628.247 3.958.013 7.831-.065 11.627-.247 2.662 0 4.817-2.377 4.817-5.306.156-2.324.228-4.642.221-6.966a95.637 95.637 0 0 0-.215-6.96ZM13.477 19.694V6.901l9.44 6.393-9.44 6.399Z" fill="#606060"/></svg>